<svg xmlns="http://www.w3.org/2000/svg" viewBox="0 0 33 33" role="img" aria-label="QR code for the Quant AI iOS app download">
<rect width="33" height="33" fill="#FFFFFF"/>
<path fill="#111827" d="M0 0h7v1H0zM9 0h1v1H9zM12 0h2v1H12zM17 0h4v1H17zM23 0h1v1H23zM26,0 h7v1H26zM0 1h1v1H0zM6 1h1v1H6zM9 1h2v1H9zM13 1h3v1H13zM17 1h1v1H17zM20 1h2v1H20zM24 1h1v1H24zM26 1h1v1H26zM32,1 h1v1H32zM0 2h1v1H0zM2 2h3v1H2zM6 2h1v1H6zM8 2h2v1H8zM12 2h2v1H12zM15 2h1v1H15zM17 2h7v1H17zM26 2h1v1H26zM28 2h3v1H28zM32,2 h1v1H32zM0 3h1v1H0zM2 3h3v1H2zM6 3h1v1H6zM8 3h1v1H8zM10 3h1v1H10zM14 3h3v1H14zM19 3h2v1H19zM23 3h1v1H23zM26 3h1v1H26zM28 3h3v1H28zM32,3 h1v1H32zM0 4h1v1H0zM2 4h3v1H2zM6 4h1v1H6zM8 4h2v1H8zM11 4h1v1H11zM13 4h1v1H13zM15 4h1v1H15zM17 4h2v1H17zM21 4h4v1H21zM26 4h1v1H26zM28 4h3v1H28zM32,4 h1v1H32zM0 5h1v1H0zM6 5h1v1H6zM8 5h3v1H8zM13 5h4v1H13zM20 5h2v1H20zM24 5h1v1H24zM26 5h1v1H26zM32,5 h1v1H32zM0 6h7v1H0zM8 6h1v1H8zM10 6h1v1H10zM12 6h1v1H12zM14 6h1v1H14zM16 6h1v1H16zM18 6h1v1H18zM20 6h1v1H20zM22 6h1v1H22zM24 6h1v1H24zM26,6 h7v1H26zM8 7h1v1H8zM11 7h1v1H11zM14 7h2v1H14zM21 7h2v1H21zM0 8h1v1H0zM2 8h5v1H2zM9 8h10v1H9zM22 8h1v1H22zM24 8h1v1H24zM26 8h5v1H26zM4 9h1v1H4zM7 9h2v1H7zM14 9h1v1H14zM16 9h1v1H16zM18 9h7v1H18zM26 9h2v1H26zM29 9h2v1H29zM32,9 h1v1H32zM1 10h6v1H1zM10 10h1v1H10zM15 10h1v1H15zM18 10h1v1H18zM20 10h3v1H20zM26 10h1v1H26zM28 10h1v1H28zM30 10h2v1H30zM0 11h4v1H0zM5 11h1v1H5zM10 11h1v1H10zM14 11h2v1H14zM19 11h1v1H19zM21 11h5v1H21zM28 11h4v1H28zM0 12h1v1H0zM2 12h1v1H2zM5 12h3v1H5zM10 12h1v1H10zM15 12h1v1H15zM18 12h1v1H18zM25 12h1v1H25zM27 12h3v1H27zM0 13h1v1H0zM2 13h3v1H2zM7 13h5v1H7zM13 13h5v1H13zM20 13h5v1H20zM26 13h1v1H26zM29 13h1v1H29zM31,13 h2v1H31zM0 14h1v1H0zM3 14h1v1H3zM6 14h1v1H6zM9 14h3v1H9zM14 14h1v1H14zM17 14h1v1H17zM19 14h1v1H19zM21 14h1v1H21zM25 14h2v1H25zM28 14h1v1H28zM31 14h1v1H31zM0 15h4v1H0zM5 15h1v1H5zM11 15h1v1H11zM13 15h1v1H13zM16 15h1v1H16zM19 15h3v1H19zM25 15h2v1H25zM28 15h3v1H28zM0 16h3v1H0zM4 16h1v1H4zM6 16h3v1H6zM10 16h2v1H10zM13 16h2v1H13zM16 16h2v1H16zM19 16h1v1H19zM22 16h1v1H22zM25 16h1v1H25zM27 16h3v1H27zM32,16 h1v1H32zM0 17h1v1H0zM2 17h1v1H2zM4 17h2v1H4zM9 17h1v1H9zM12 17h1v1H12zM16 17h2v1H16zM19 17h5v1H19zM26 17h2v1H26zM29 17h2v1H29zM32,17 h1v1H32zM0 18h1v1H0zM4 18h1v1H4zM6 18h2v1H6zM9 18h2v1H9zM14 18h4v1H14zM22 18h1v1H22zM24 18h2v1H24zM27 18h2v1H27zM30 18h2v1H30zM1 19h1v1H1zM3 19h1v1H3zM9 19h2v1H9zM12 19h1v1H12zM14 19h2v1H14zM17 19h5v1H17zM24 19h1v1H24zM27 19h5v1H27zM2 20h5v1H2zM9 20h1v1H9zM13 20h1v1H13zM15 20h2v1H15zM19 20h1v1H19zM27 20h3v1H27zM31 20h1v1H31zM0 21h1v1H0zM3 21h1v1H3zM5 21h1v1H5zM7 21h1v1H7zM9 21h2v1H9zM12 21h4v1H12zM18 21h1v1H18zM21 21h7v1H21zM29 21h2v1H29zM32,21 h1v1H32zM0 22h1v1H0zM3 22h1v1H3zM6 22h2v1H6zM9 22h1v1H9zM15 22h2v1H15zM20 22h2v1H20zM30 22h2v1H30zM0 23h1v1H0zM2 23h3v1H2zM8 23h1v1H8zM14 23h2v1H14zM19 23h1v1H19zM21 23h1v1H21zM23 23h1v1H23zM25 23h1v1H25zM27 23h4v1H27zM32,23 h1v1H32zM0 24h1v1H0zM3 24h1v1H3zM5 24h4v1H5zM11 24h1v1H11zM15 24h1v1H15zM17 24h1v1H17zM22 24h1v1H22zM24 24h5v1H24zM8 25h2v1H8zM12 25h2v1H12zM16 25h1v1H16zM19 25h1v1H19zM21 25h1v1H21zM23 25h2v1H23zM28 25h1v1H28zM30,25 h3v1H30zM0 26h7v1H0zM9 26h1v1H9zM12 26h1v1H12zM14 26h3v1H14zM18 26h1v1H18zM20 26h5v1H20zM26 26h1v1H26zM28 26h1v1H28zM30 26h2v1H30zM0 27h1v1H0zM6 27h1v1H6zM8 27h2v1H8zM11 27h2v1H11zM14 27h1v1H14zM16 27h1v1H16zM20 27h5v1H20zM28 27h4v1H28zM0 28h1v1H0zM2 28h3v1H2zM6 28h1v1H6zM8 28h3v1H8zM13 28h1v1H13zM18 28h1v1H18zM20 28h1v1H20zM24 28h6v1H24zM0 29h1v1H0zM2 29h3v1H2zM6 29h1v1H6zM8 29h3v1H8zM12 29h1v1H12zM15 29h2v1H15zM19 29h1v1H19zM22 29h1v1H22zM24 29h2v1H24zM28 29h1v1H28zM30,29 h3v1H30zM0 30h1v1H0zM2 30h3v1H2zM6 30h1v1H6zM8 30h1v1H8zM10 30h1v1H10zM13 30h1v1H13zM17 30h2v1H17zM21 30h2v1H21zM24 30h4v1H24zM29 30h2v1H29zM0 31h1v1H0zM6 31h1v1H6zM9 31h1v1H9zM11 31h1v1H11zM13 31h2v1H13zM16 31h1v1H16zM19 31h1v1H19zM21 31h1v1H21zM23 31h1v1H23zM25 31h1v1H25zM28 31h3v1H28zM0 32h7v1H0zM8 32h1v1H8zM12 32h2v1H12zM17 32h2v1H17zM22 32h1v1H22zM24 32h1v1H24zM26 32h2v1H26zM31 32h1v1H31z" shape-rendering="crispEdges"/>
</svg>
